<?xml version="1.0" encoding="UTF-8" standalone="no"?>
<svg
   xmlns:dc="http://purl.org/dc/elements/1.1/"
   xmlns:cc="http://creativecommons.org/ns#"
   xmlns:rdf="http://www.w3.org/1999/02/22-rdf-syntax-ns#"
   xmlns:svg="http://www.w3.org/2000/svg"
   xmlns="http://www.w3.org/2000/svg"
   xmlns:sodipodi="http://sodipodi.sourceforge.net/DTD/sodipodi-0.dtd"
   xmlns:inkscape="http://www.inkscape.org/namespaces/inkscape"
   width="170.193604pt"
   height="54.723598pt"
   viewBox="0 0 170.193604 54.723598"
   version="1.2"
   id="svg34"
   sodipodi:docname="lih.svg"
   inkscape:version="1.0.2 (e86c870879, 2021-01-15)">
  <metadata
     id="metadata38">
    <rdf:RDF>
      <cc:Work
         rdf:about="">
        <dc:format>image/svg+xml</dc:format>
        <dc:type
           rdf:resource="http://purl.org/dc/dcmitype/StillImage" />
        <dc:title></dc:title>
      </cc:Work>
    </rdf:RDF>
  </metadata>
  <sodipodi:namedview
     pagecolor="#ffffff"
     bordercolor="#666666"
     borderopacity="1"
     objecttolerance="10"
     gridtolerance="10"
     guidetolerance="10"
     inkscape:pageopacity="0"
     inkscape:pageshadow="2"
     inkscape:window-width="718"
     inkscape:window-height="480"
     id="namedview36"
     showgrid="false"
     inkscape:zoom="1.859878"
     inkscape:cx="113.4624"
     inkscape:cy="36.482399"
     inkscape:window-x="181"
     inkscape:window-y="118"
     inkscape:window-maximized="0"
     inkscape:current-layer="svg34" />
  <defs
     id="defs11">
    <clipPath
       id="clip1">
      <path
         d="M 0 36 L 9 36 L 9 54.722656 L 0 54.722656 Z M 0 36 "
         id="path2" />
    </clipPath>
    <clipPath
       id="clip2">
      <path
         d="M 34 0 L 44 0 L 44 54.722656 L 34 54.722656 Z M 34 0 "
         id="path5" />
    </clipPath>
    <clipPath
       id="clip3">
      <path
         d="M 66 49 L 170.195312 49 L 170.195312 54.722656 L 66 54.722656 Z M 66 49 "
         id="path8" />
    </clipPath>
  </defs>
  <g
     id="surface1916">
    <path
       style=" stroke:none;fill-rule:nonzero;fill:rgb(34.509277%,3.529358%,14.901733%);fill-opacity:1;"
       d="M 4.164062 25.609375 C 3.667969 25.609375 3.261719 25.203125 3.261719 24.710938 L 3.261719 0.898438 C 3.261719 0.402344 2.859375 0 2.363281 0 L 0.898438 0 C 0.40625 0 0 0.402344 0 0.898438 L 0 27.976562 C 0 28.46875 0.40625 28.875 0.898438 28.875 L 25.613281 28.875 C 26.109375 28.875 26.515625 28.46875 26.515625 27.976562 L 26.515625 26.507812 C 26.515625 26.015625 26.109375 25.609375 25.613281 25.609375 Z M 4.164062 25.609375 "
       id="path13" />
    <g
       clip-path="url(#clip1)"
       clip-rule="nonzero"
       id="g17">
      <path
         style=" stroke:none;fill-rule:nonzero;fill:rgb(94.116211%,30.979919%,21.960449%);fill-opacity:1;"
         d="M 8.316406 53.664062 C 8.316406 54.160156 7.914062 54.5625 7.417969 54.5625 L 1.027344 54.5625 C 0.535156 54.5625 0.128906 54.160156 0.128906 53.664062 L 0.128906 37.355469 C 0.128906 36.859375 0.535156 36.457031 1.027344 36.457031 L 7.417969 36.457031 C 7.914062 36.457031 8.316406 36.859375 8.316406 37.355469 Z M 8.316406 53.664062 "
         id="path15" />
    </g>
    <g
       clip-path="url(#clip2)"
       clip-rule="nonzero"
       id="g21">
      <path
         style=" stroke:none;fill-rule:nonzero;fill:rgb(41.960144%,58.430481%,66.665649%);fill-opacity:1;"
         d="M 43.007812 53.664062 C 43.007812 54.160156 42.605469 54.566406 42.109375 54.566406 L 35.859375 54.566406 C 35.363281 54.566406 34.957031 54.160156 34.957031 53.664062 L 34.957031 1.0625 C 34.957031 0.566406 35.363281 0.160156 35.859375 0.160156 L 42.109375 0.160156 C 42.605469 0.160156 43.007812 0.566406 43.007812 1.0625 Z M 43.007812 53.664062 "
         id="path19" />
    </g>
    <g
       clip-path="url(#clip3)"
       clip-rule="nonzero"
       id="g25">
      <path
         style=" stroke:none;fill-rule:nonzero;fill:rgb(41.960144%,58.430481%,66.665649%);fill-opacity:1;"
         d="M 70.496094 54.585938 L 69.957031 53.457031 C 69.75 53.027344 69.5 52.667969 69.21875 52.398438 C 69.703125 52.21875 70.128906 51.734375 70.128906 51.0625 C 70.128906 49.992188 69.359375 49.558594 68.433594 49.558594 C 67.925781 49.558594 67.421875 49.585938 66.765625 49.660156 L 66.765625 54.648438 L 67.84375 54.648438 L 67.84375 52.734375 L 68.296875 52.734375 C 68.484375 52.949219 68.738281 53.394531 68.992188 53.9375 L 69.335938 54.699219 C 69.703125 54.699219 70.128906 54.664062 70.496094 54.585938 M 69.015625 51.144531 C 69.015625 51.6875 68.695312 51.902344 68.269531 51.902344 L 67.84375 51.902344 L 67.84375 50.46875 C 68 50.453125 68.164062 50.445312 68.359375 50.445312 C 68.785156 50.445312 69.015625 50.6875 69.015625 51.144531 M 74.515625 53.675781 L 72.550781 53.675781 L 72.550781 52.554688 L 73.835938 52.554688 L 73.835938 51.597656 L 72.550781 51.597656 L 72.550781 50.582031 L 74.316406 50.582031 C 74.359375 50.289062 74.390625 49.894531 74.390625 49.609375 L 71.445312 49.609375 L 71.445312 54.648438 L 74.433594 54.648438 C 74.480469 54.320312 74.515625 53.976562 74.515625 53.675781 M 78.632812 53.160156 C 78.632812 51.695312 76.566406 51.746094 76.566406 50.980469 C 76.566406 50.648438 76.746094 50.460938 77.140625 50.460938 C 77.460938 50.460938 77.957031 50.523438 78.296875 50.605469 C 78.367188 50.296875 78.410156 49.945312 78.425781 49.660156 C 78.058594 49.566406 77.679688 49.535156 77.355469 49.535156 C 76.25 49.535156 75.421875 50.058594 75.421875 51.042969 C 75.421875 52.585938 77.5 52.425781 77.5 53.265625 C 77.5 53.601562 77.320312 53.796875 76.910156 53.796875 C 76.503906 53.796875 75.980469 53.699219 75.617188 53.542969 C 75.535156 53.8125 75.445312 54.148438 75.398438 54.492188 C 75.816406 54.671875 76.347656 54.722656 76.773438 54.722656 C 77.859375 54.722656 78.632812 54.214844 78.632812 53.160156 M 82.898438 53.675781 L 80.929688 53.675781 L 80.929688 52.554688 L 82.214844 52.554688 L 82.214844 51.597656 L 80.929688 51.597656 L 80.929688 50.582031 L 82.695312 50.582031 C 82.738281 50.289062 82.769531 49.894531 82.769531 49.609375 L 79.824219 49.609375 L 79.824219 54.648438 L 82.8125 54.648438 C 82.859375 54.320312 82.898438 53.976562 82.898438 53.675781 M 87.722656 54.597656 C 87.285156 52.988281 86.777344 51.292969 86.238281 49.609375 L 85.011719 49.609375 C 84.4375 51.320312 83.9375 52.972656 83.492188 54.597656 C 83.816406 54.664062 84.175781 54.6875 84.503906 54.6875 L 84.847656 53.445312 L 86.289062 53.445312 L 86.632812 54.6875 C 87.007812 54.6875 87.375 54.671875 87.722656 54.597656 M 86.035156 52.523438 L 85.101562 52.523438 L 85.472656 51.164062 C 85.503906 51.039062 85.519531 50.910156 85.527344 50.738281 L 85.601562 50.738281 C 85.609375 50.910156 85.632812 51.039062 85.660156 51.164062 Z M 92.359375 54.585938 L 91.820312 53.457031 C 91.613281 53.027344 91.363281 52.667969 91.078125 52.398438 C 91.566406 52.21875 91.992188 51.734375 91.992188 51.0625 C 91.992188 49.992188 91.222656 49.558594 90.296875 49.558594 C 89.789062 49.558594 89.289062 49.585938 88.628906 49.660156 L 88.628906 54.648438 L 89.703125 54.648438 L 89.703125 52.734375 L 90.160156 52.734375 C 90.347656 52.949219 90.601562 53.394531 90.855469 53.9375 L 91.199219 54.699219 C 91.566406 54.699219 91.992188 54.664062 92.359375 54.585938 M 90.878906 51.144531 C 90.878906 51.6875 90.558594 51.902344 90.132812 51.902344 L 89.703125 51.902344 L 89.703125 50.46875 C 89.863281 50.453125 90.027344 50.445312 90.21875 50.445312 C 90.648438 50.445312 90.878906 50.6875 90.878906 51.144531 M 96.695312 54.386719 C 96.671875 54.035156 96.613281 53.699219 96.539062 53.402344 C 96.246094 53.59375 95.746094 53.75 95.320312 53.75 C 94.585938 53.75 94.226562 53.332031 94.226562 52.113281 C 94.226562 50.84375 94.691406 50.507812 95.273438 50.507812 C 95.664062 50.507812 96.097656 50.597656 96.441406 50.761719 C 96.507812 50.441406 96.574219 50.058594 96.589844 49.773438 C 96.304688 49.632812 95.683594 49.535156 95.214844 49.535156 C 94.003906 49.535156 93.039062 50.320312 93.039062 52.121094 C 93.039062 53.824219 93.824219 54.722656 95.289062 54.722656 C 95.730469 54.722656 96.320312 54.609375 96.695312 54.386719 M 101.703125 54.648438 L 101.703125 49.609375 L 100.597656 49.609375 L 100.597656 51.546875 L 98.894531 51.546875 L 98.894531 49.609375 L 97.785156 49.609375 L 97.785156 54.648438 L 98.894531 54.648438 L 98.894531 52.539062 L 100.597656 52.539062 L 100.597656 54.648438 Z M 108.839844 52.023438 C 108.839844 50.277344 107.773438 49.558594 106.546875 49.558594 C 106.097656 49.558594 105.238281 49.601562 104.8125 49.660156 L 104.8125 54.609375 C 105.238281 54.679688 106 54.714844 106.550781 54.714844 C 107.898438 54.714844 108.839844 53.734375 108.839844 52.023438 M 107.652344 52.128906 C 107.652344 53.285156 107.277344 53.734375 106.515625 53.734375 C 106.34375 53.734375 106.066406 53.730469 105.917969 53.714844 L 105.917969 50.558594 C 106.082031 50.542969 106.351562 50.535156 106.523438 50.535156 C 107.167969 50.535156 107.652344 50.945312 107.652344 52.128906 M 113.078125 53.675781 L 111.113281 53.675781 L 111.113281 52.554688 L 112.398438 52.554688 L 112.398438 51.597656 L 111.113281 51.597656 L 111.113281 50.582031 L 112.878906 50.582031 C 112.921875 50.289062 112.953125 49.894531 112.953125 49.609375 L 110.007812 49.609375 L 110.007812 54.648438 L 112.996094 54.648438 C 113.042969 54.320312 113.078125 53.976562 113.078125 53.675781 M 118.238281 52.023438 C 118.238281 50.277344 117.167969 49.558594 115.941406 49.558594 C 115.492188 49.558594 114.632812 49.601562 114.207031 49.660156 L 114.207031 54.609375 C 114.632812 54.679688 115.398438 54.714844 115.949219 54.714844 C 117.292969 54.714844 118.238281 53.734375 118.238281 52.023438 M 117.046875 52.128906 C 117.046875 53.285156 116.675781 53.734375 115.914062 53.734375 C 115.738281 53.734375 115.464844 53.730469 115.3125 53.714844 L 115.3125 50.558594 C 115.476562 50.542969 115.746094 50.535156 115.917969 50.535156 C 116.5625 50.535156 117.046875 50.945312 117.046875 52.128906 M 120.507812 49.609375 L 119.402344 49.609375 L 119.402344 54.648438 L 120.507812 54.648438 Z M 125.328125 54.386719 C 125.308594 54.035156 125.246094 53.699219 125.171875 53.402344 C 124.882812 53.59375 124.378906 53.75 123.953125 53.75 C 123.222656 53.75 122.863281 53.332031 122.863281 52.113281 C 122.863281 50.84375 123.328125 50.507812 123.910156 50.507812 C 124.296875 50.507812 124.730469 50.597656 125.074219 50.761719 C 125.144531 50.441406 125.210938 50.058594 125.226562 49.773438 C 124.941406 49.632812 124.320312 49.535156 123.847656 49.535156 C 122.636719 49.535156 121.675781 50.320312 121.675781 52.121094 C 121.675781 53.824219 122.460938 54.722656 123.925781 54.722656 C 124.367188 54.722656 124.957031 54.609375 125.328125 54.386719 M 130.121094 54.597656 C 129.679688 52.988281 129.171875 51.292969 128.632812 49.609375 L 127.40625 49.609375 C 126.832031 51.320312 126.332031 52.972656 125.890625 54.597656 C 126.210938 54.664062 126.570312 54.6875 126.898438 54.6875 L 127.242188 53.445312 L 128.6875 53.445312 L 129.03125 54.6875 C 129.402344 54.6875 129.769531 54.671875 130.121094 54.597656 M 128.429688 52.523438 L 127.496094 52.523438 L 127.871094 51.164062 C 127.902344 51.039062 127.914062 50.910156 127.921875 50.738281 L 127.996094 50.738281 C 128.003906 50.910156 128.027344 51.039062 128.058594 51.164062 Z M 133.722656 49.609375 L 130.335938 49.609375 L 130.335938 50.582031 L 131.460938 50.582031 L 131.460938 54.648438 L 132.566406 54.648438 L 132.566406 50.582031 L 133.640625 50.582031 C 133.6875 50.289062 133.722656 49.921875 133.722656 49.609375 M 137.769531 53.675781 L 135.800781 53.675781 L 135.800781 52.554688 L 137.085938 52.554688 L 137.085938 51.597656 L 135.800781 51.597656 L 135.800781 50.582031 L 137.566406 50.582031 C 137.613281 50.289062 137.640625 49.894531 137.640625 49.609375 L 134.695312 49.609375 L 134.695312 54.648438 L 137.6875 54.648438 C 137.730469 54.320312 137.769531 53.976562 137.769531 53.675781 M 142.925781 52.023438 C 142.925781 50.277344 141.855469 49.558594 140.628906 49.558594 C 140.183594 49.558594 139.324219 49.601562 138.898438 49.660156 L 138.898438 54.609375 C 139.324219 54.679688 140.085938 54.714844 140.636719 54.714844 C 141.984375 54.714844 142.925781 53.734375 142.925781 52.023438 M 141.738281 52.128906 C 141.738281 53.285156 141.363281 53.734375 140.601562 53.734375 C 140.429688 53.734375 140.152344 53.730469 140.003906 53.714844 L 140.003906 50.558594 C 140.167969 50.542969 140.4375 50.535156 140.609375 50.535156 C 141.25 50.535156 141.738281 50.945312 141.738281 52.128906 M 148.6875 49.609375 L 145.300781 49.609375 L 145.300781 50.582031 L 146.421875 50.582031 L 146.421875 54.648438 L 147.53125 54.648438 L 147.53125 50.582031 L 148.605469 50.582031 C 148.652344 50.289062 148.6875 49.921875 148.6875 49.609375 M 153.71875 52.128906 C 153.71875 50.289062 152.851562 49.535156 151.558594 49.535156 C 150.273438 49.535156 149.390625 50.402344 149.390625 52.160156 C 149.390625 54.003906 150.257812 54.722656 151.558594 54.722656 C 152.824219 54.722656 153.71875 53.960938 153.71875 52.128906 M 152.539062 52.128906 C 152.539062 53.394531 152.246094 53.78125 151.558594 53.78125 C 150.878906 53.78125 150.578125 53.371094 150.578125 52.128906 C 150.578125 50.84375 150.902344 50.476562 151.550781 50.476562 C 152.1875 50.476562 152.539062 50.84375 152.539062 52.128906 M 159.472656 53.660156 L 157.664062 53.660156 L 157.664062 49.609375 L 156.558594 49.609375 L 156.558594 54.648438 L 159.398438 54.648438 C 159.4375 54.332031 159.472656 53.996094 159.472656 53.660156 M 161.597656 49.609375 L 160.492188 49.609375 L 160.492188 54.648438 L 161.597656 54.648438 Z M 165.984375 49.609375 L 163.03125 49.609375 L 163.03125 54.648438 L 164.136719 54.648438 L 164.136719 52.71875 L 165.609375 52.71875 L 165.609375 51.753906 L 164.136719 51.753906 L 164.136719 50.582031 L 165.910156 50.582031 C 165.960938 50.246094 165.984375 49.902344 165.984375 49.609375 M 170.195312 53.675781 L 168.226562 53.675781 L 168.226562 52.554688 L 169.511719 52.554688 L 169.511719 51.597656 L 168.226562 51.597656 L 168.226562 50.582031 L 169.992188 50.582031 C 170.035156 50.289062 170.066406 49.894531 170.066406 49.609375 L 167.121094 49.609375 L 167.121094 54.648438 L 170.109375 54.648438 C 170.15625 54.320312 170.195312 53.976562 170.195312 53.675781 "
         id="path23" />
    </g>
    <path
       style=" stroke:none;fill-rule:nonzero;fill:rgb(34.509277%,3.529358%,14.901733%);fill-opacity:1;"
       d="M 75.0625 37.183594 C 75.0625 33.335938 73.445312 31.503906 70.59375 31.503906 C 67.78125 31.503906 66.09375 33.46875 66.09375 37.246094 C 66.09375 41.0625 67.730469 42.863281 70.59375 42.863281 C 73.3125 42.863281 75.0625 41.046875 75.0625 37.183594 M 73.589844 37.183594 C 73.589844 40.410156 72.675781 41.667969 70.59375 41.667969 C 68.453125 41.667969 67.566406 40.34375 67.566406 37.183594 C 67.566406 33.8125 68.597656 32.699219 70.578125 32.699219 C 72.542969 32.699219 73.589844 33.84375 73.589844 37.183594 M 84.296875 31.664062 L 78.125 31.664062 L 78.125 42.699219 L 79.5 42.699219 L 79.5 37.773438 L 83.332031 37.773438 L 83.332031 36.5625 L 79.5 36.5625 L 79.5 32.878906 L 84.179688 32.878906 C 84.25 32.484375 84.296875 32.058594 84.296875 31.664062 M 99.011719 42.699219 L 99.011719 31.664062 L 96.589844 31.664062 L 96.589844 35.90625 L 92.859375 35.90625 L 92.859375 31.664062 L 90.433594 31.664062 L 90.433594 42.699219 L 92.859375 42.699219 L 92.859375 38.082031 L 96.589844 38.082031 L 96.589844 42.699219 Z M 108.882812 40.570312 L 104.578125 40.570312 L 104.578125 38.117188 L 107.394531 38.117188 L 107.394531 36.019531 L 104.578125 36.019531 L 104.578125 33.792969 L 108.441406 33.792969 C 108.542969 33.15625 108.605469 32.289062 108.605469 31.664062 L 102.15625 31.664062 L 102.15625 42.699219 L 108.703125 42.699219 C 108.800781 41.980469 108.882812 41.226562 108.882812 40.570312 M 119.460938 42.585938 C 118.492188 39.066406 117.378906 35.351562 116.203125 31.664062 L 113.515625 31.664062 C 112.257812 35.414062 111.160156 39.035156 110.195312 42.585938 C 110.898438 42.734375 111.683594 42.78125 112.402344 42.78125 L 113.15625 40.0625 L 116.316406 40.0625 L 117.070312 42.78125 C 117.886719 42.78125 118.6875 42.746094 119.460938 42.585938 M 115.757812 38.050781 L 113.714844 38.050781 L 114.53125 35.070312 C 114.597656 34.792969 114.628906 34.515625 114.644531 34.136719 L 114.808594 34.136719 C 114.828125 34.515625 114.875 34.792969 114.941406 35.070312 Z M 127.824219 40.539062 L 123.863281 40.539062 L 123.863281 31.664062 L 121.4375 31.664062 L 121.4375 42.699219 L 127.660156 42.699219 C 127.742188 42.011719 127.824219 41.273438 127.824219 40.539062 M 135.222656 31.664062 L 127.808594 31.664062 L 127.808594 33.792969 L 130.261719 33.792969 L 130.261719 42.699219 L 132.683594 42.699219 L 132.683594 33.792969 L 135.042969 33.792969 C 135.140625 33.15625 135.222656 32.355469 135.222656 31.664062 M 145.929688 42.699219 L 145.929688 31.664062 L 143.507812 31.664062 L 143.507812 35.90625 L 139.773438 35.90625 L 139.773438 31.664062 L 137.351562 31.664062 L 137.351562 42.699219 L 139.773438 42.699219 L 139.773438 38.082031 L 143.507812 38.082031 L 143.507812 42.699219 Z M 145.929688 42.699219 "
       id="path27" />
    <path
       style=" stroke:none;fill-rule:nonzero;fill:rgb(34.509277%,3.529358%,14.901733%);fill-opacity:1;"
       d="M 68.109375 15.957031 L 66.734375 15.957031 L 66.734375 26.992188 L 68.109375 26.992188 Z M 79.679688 15.957031 L 78.4375 15.957031 L 78.4375 23.648438 C 78.4375 23.976562 78.46875 24.550781 78.519531 24.878906 L 78.421875 24.894531 C 78.289062 24.535156 78.078125 24.058594 77.863281 23.714844 L 73.230469 15.925781 C 72.839844 15.925781 72.234375 15.972656 71.808594 16.070312 L 71.808594 26.988281 L 73.066406 26.988281 L 73.066406 19.019531 C 73.066406 18.691406 73.019531 18.199219 72.96875 17.789062 L 73.066406 17.773438 C 73.199219 18.132812 73.476562 18.722656 73.625 18.96875 L 78.453125 27.070312 C 78.8125 27.070312 79.335938 27.007812 79.679688 26.941406 Z M 89.289062 24.074219 C 89.289062 20.671875 84.167969 20.867188 84.167969 18.675781 C 84.167969 17.675781 84.625 16.988281 86.292969 16.988281 C 86.984375 16.988281 87.882812 17.101562 88.554688 17.28125 C 88.667969 16.90625 88.765625 16.332031 88.765625 16.039062 C 88.109375 15.875 87.160156 15.792969 86.457031 15.792969 C 84.296875 15.792969 82.773438 16.855469 82.773438 18.804688 C 82.773438 21.964844 87.914062 21.6875 87.914062 24.191406 C 87.914062 25.335938 87.195312 25.960938 85.835938 25.960938 C 84.902344 25.960938 83.984375 25.8125 83.085938 25.417969 C 82.972656 25.746094 82.824219 26.253906 82.773438 26.644531 C 83.644531 27.023438 84.804688 27.152344 85.703125 27.152344 C 87.964844 27.152344 89.289062 25.910156 89.289062 24.074219 M 98.195312 15.957031 L 90.894531 15.957031 L 90.894531 17.167969 L 93.808594 17.167969 L 93.808594 26.988281 L 95.183594 26.988281 L 95.183594 17.167969 L 98.046875 17.167969 C 98.148438 16.773438 98.195312 16.347656 98.195312 15.957031 M 101.945312 15.957031 L 100.566406 15.957031 L 100.566406 26.992188 L 101.945312 26.992188 Z M 111.636719 15.957031 L 104.332031 15.957031 L 104.332031 17.167969 L 107.246094 17.167969 L 107.246094 26.988281 L 108.621094 26.988281 L 108.621094 17.167969 L 111.488281 17.167969 C 111.585938 16.773438 111.636719 16.347656 111.636719 15.957031 M 121.71875 22.636719 L 121.71875 15.957031 L 120.425781 15.957031 L 120.425781 22.898438 C 120.425781 25.042969 119.605469 25.910156 117.871094 25.910156 C 115.921875 25.910156 115.367188 25.089844 115.367188 22.898438 L 115.367188 15.957031 L 113.992188 15.957031 L 113.992188 22.636719 C 113.992188 26.203125 115.382812 27.152344 117.839844 27.152344 C 120.753906 27.152344 121.71875 25.46875 121.71875 22.636719 M 131.394531 15.957031 L 124.09375 15.957031 L 124.09375 17.167969 L 127.003906 17.167969 L 127.003906 26.988281 L 128.382812 26.988281 L 128.382812 17.167969 L 131.246094 17.167969 C 131.34375 16.773438 131.394531 16.347656 131.394531 15.957031 M 140.117188 25.777344 L 135.140625 25.777344 L 135.140625 21.816406 L 138.644531 21.816406 L 138.644531 20.605469 L 135.140625 20.605469 L 135.140625 17.167969 L 139.742188 17.167969 C 139.808594 16.773438 139.839844 16.332031 139.839844 15.957031 L 133.765625 15.957031 L 133.765625 26.988281 L 140.003906 26.988281 C 140.070312 26.597656 140.117188 26.15625 140.117188 25.777344 "
       id="path29" />
    <path
       style=" stroke:none;fill-rule:nonzero;fill:rgb(34.509277%,3.529358%,14.901733%);fill-opacity:1;"
       d="M 72.707031 10.050781 L 68.105469 10.050781 L 68.105469 0.246094 L 66.734375 0.246094 L 66.734375 11.28125 L 72.578125 11.28125 C 72.65625 10.871094 72.707031 10.445312 72.707031 10.050781 M 82.429688 6.925781 L 82.429688 0.246094 L 81.136719 0.246094 L 81.136719 7.1875 C 81.136719 9.332031 80.320312 10.199219 78.585938 10.199219 C 76.636719 10.199219 76.078125 9.378906 76.078125 7.1875 L 76.078125 0.246094 L 74.703125 0.246094 L 74.703125 6.925781 C 74.703125 10.492188 76.09375 11.445312 78.550781 11.445312 C 81.464844 11.445312 82.429688 9.757812 82.429688 6.925781 M 93.609375 11.199219 L 90.238281 5.550781 L 93.449219 0.328125 C 93.039062 0.246094 92.398438 0.214844 91.988281 0.214844 L 89.699219 4.140625 C 89.535156 4.386719 89.453125 4.585938 89.390625 4.78125 L 89.289062 4.78125 C 89.226562 4.601562 89.144531 4.40625 89.011719 4.160156 L 86.621094 0.214844 C 86.179688 0.214844 85.539062 0.246094 85.066406 0.328125 L 88.355469 5.597656 L 84.886719 11.199219 C 85.261719 11.3125 85.917969 11.363281 86.328125 11.363281 L 88.863281 7.105469 C 89.011719 6.84375 89.09375 6.664062 89.191406 6.417969 L 89.273438 6.417969 C 89.390625 6.648438 89.472656 6.859375 89.617188 7.105469 L 92.121094 11.363281 C 92.578125 11.363281 93.167969 11.3125 93.609375 11.199219 M 102.4375 10.070312 L 97.457031 10.070312 L 97.457031 6.105469 L 100.960938 6.105469 L 100.960938 4.894531 L 97.457031 4.894531 L 97.457031 1.457031 L 102.058594 1.457031 C 102.121094 1.066406 102.15625 0.625 102.15625 0.246094 L 96.082031 0.246094 L 96.082031 11.28125 L 102.320312 11.28125 C 102.386719 10.886719 102.4375 10.445312 102.4375 10.070312 M 116.152344 11.214844 C 115.921875 7.613281 115.5625 3.929688 115.152344 0.246094 L 113.582031 0.246094 L 110.914062 8.511719 C 110.816406 8.839844 110.734375 9.296875 110.699219 9.742188 L 110.585938 9.742188 C 110.539062 9.296875 110.4375 8.839844 110.339844 8.53125 L 107.671875 0.246094 L 106.132812 0.246094 C 105.707031 3.945312 105.332031 7.582031 105.054688 11.214844 C 105.363281 11.296875 105.871094 11.328125 106.230469 11.328125 L 107 3.046875 C 107.019531 2.851562 107.035156 2.390625 107.035156 2.046875 L 107.132812 2.046875 C 107.164062 2.40625 107.230469 2.800781 107.3125 3.046875 L 109.949219 11.28125 L 111.210938 11.28125 L 113.859375 3.046875 C 113.941406 2.800781 114.023438 2.40625 114.058594 2.046875 L 114.15625 2.046875 C 114.15625 2.390625 114.15625 2.820312 114.171875 3.046875 L 114.859375 11.328125 C 115.25 11.328125 115.761719 11.296875 116.152344 11.214844 M 126.480469 8.167969 C 126.480469 6.792969 125.710938 5.945312 124.484375 5.550781 L 124.484375 5.453125 C 125.351562 5.058594 126.070312 4.207031 126.070312 2.996094 C 126.070312 0.949219 124.664062 0.132812 122.488281 0.132812 C 121.601562 0.132812 120.472656 0.230469 119.539062 0.363281 L 119.539062 11.199219 C 120.6875 11.34375 121.863281 11.425781 122.617188 11.425781 C 124.730469 11.425781 126.480469 10.511719 126.480469 8.167969 M 124.730469 3.078125 C 124.730469 4.339844 123.976562 5.109375 122.765625 5.109375 L 120.867188 5.109375 L 120.867188 1.3125 C 121.570312 1.246094 122.09375 1.210938 122.585938 1.210938 C 123.976562 1.210938 124.730469 1.882812 124.730469 3.078125 M 125.058594 8.105469 C 125.058594 9.546875 124.222656 10.3125 122.636719 10.3125 C 122.191406 10.3125 121.570312 10.28125 120.867188 10.199219 L 120.867188 6.140625 L 122.878906 6.140625 C 124.238281 6.140625 125.058594 6.859375 125.058594 8.105469 M 137.761719 5.761719 C 137.761719 1.917969 136.140625 0.0820312 133.289062 0.0820312 C 130.476562 0.0820312 128.789062 2.046875 128.789062 5.828125 C 128.789062 9.644531 130.429688 11.445312 133.289062 11.445312 C 136.007812 11.445312 137.761719 9.625 137.761719 5.761719 M 136.285156 5.761719 C 136.285156 8.988281 135.371094 10.25 133.289062 10.25 C 131.148438 10.25 130.265625 8.921875 130.265625 5.761719 C 130.265625 2.390625 131.292969 1.277344 133.273438 1.277344 C 135.238281 1.277344 136.285156 2.421875 136.285156 5.761719 M 148.53125 6.925781 L 148.53125 0.246094 L 147.238281 0.246094 L 147.238281 7.1875 C 147.238281 9.332031 146.417969 10.199219 144.683594 10.199219 C 142.738281 10.199219 142.179688 9.378906 142.179688 7.1875 L 142.179688 0.246094 L 140.804688 0.246094 L 140.804688 6.925781 C 140.804688 10.492188 142.195312 11.445312 144.652344 11.445312 C 147.566406 11.445312 148.53125 9.757812 148.53125 6.925781 M 159.664062 11.164062 L 158.417969 8.808594 C 157.796875 7.628906 157.09375 6.730469 156.503906 6.253906 C 157.878906 5.894531 158.796875 4.796875 158.796875 3.273438 C 158.796875 0.933594 157.175781 0.132812 155.242188 0.132812 C 154.34375 0.132812 153.394531 0.214844 152.214844 0.363281 L 152.214844 11.28125 L 153.558594 11.28125 L 153.558594 6.648438 L 155.324219 6.648438 C 155.933594 7.203125 156.617188 8.25 157.257812 9.511719 L 158.203125 11.363281 C 158.664062 11.34375 159.238281 11.296875 159.664062 11.164062 M 157.402344 3.324219 C 157.402344 4.828125 156.570312 5.550781 155.015625 5.550781 L 153.558594 5.550781 L 153.558594 1.359375 C 154.015625 1.3125 154.703125 1.261719 155.195312 1.261719 C 156.570312 1.261719 157.402344 1.820312 157.402344 3.324219 M 169.699219 10.722656 L 169.699219 5.714844 L 165.996094 5.714844 C 165.996094 6.089844 166.03125 6.566406 166.113281 6.910156 L 168.324219 6.910156 L 168.324219 9.886719 C 167.816406 10.132812 167.0625 10.214844 166.585938 10.214844 C 164.359375 10.214844 163.066406 9.234375 163.066406 5.8125 C 163.066406 2.277344 164.410156 1.3125 166.667969 1.3125 C 167.503906 1.3125 168.519531 1.539062 169.15625 1.867188 C 169.269531 1.492188 169.402344 0.96875 169.453125 0.605469 C 168.683594 0.246094 167.585938 0.0820312 166.621094 0.0820312 C 163.574219 0.0820312 161.597656 1.785156 161.597656 5.746094 C 161.597656 9.496094 163.164062 11.445312 166.519531 11.445312 C 167.652344 11.445312 168.929688 11.117188 169.699219 10.722656 "
       id="path31" />
  </g>
</svg>
